<mxfile host="Electron" agent="Mozilla/5.0 (Windows NT 10.0; Win64; x64) AppleWebKit/537.36 (KHTML, like Gecko) draw.io/26.2.15 Chrome/134.0.6998.205 Electron/35.2.1 Safari/537.36" version="26.2.15">
  <diagram name="Page-1" id="nXwFhXZkuE3a0Gvm8ht6">
    <mxGraphModel dx="946" dy="572" grid="1" gridSize="10" guides="1" tooltips="1" connect="1" arrows="1" fold="1" page="1" pageScale="1" pageWidth="850" pageHeight="1100" math="0" shadow="0">
      <root>
        <mxCell id="0" />
        <mxCell id="1" parent="0" />
        <mxCell id="Dww_OwWbechh59FbVnbx-2" value="image&lt;div&gt;&lt;/div&gt;" style="text;html=1;align=center;verticalAlign=middle;whiteSpace=wrap;rounded=0;" parent="1" vertex="1">
          <mxGeometry x="360" y="170" width="60" height="30" as="geometry" />
        </mxCell>
        <mxCell id="Dww_OwWbechh59FbVnbx-4" value="" style="whiteSpace=wrap;html=1;aspect=fixed;fillColor=#B3B3B3;fontColor=#000000;strokeColor=#BD7000;" parent="1" vertex="1">
          <mxGeometry x="215" y="110" width="350" height="350" as="geometry" />
        </mxCell>
        <mxCell id="Dww_OwWbechh59FbVnbx-3" value="" style="rounded=0;whiteSpace=wrap;html=1;fillColor=#E6E6E6;" parent="1" vertex="1">
          <mxGeometry x="242.5" y="270" width="300" height="150" as="geometry" />
        </mxCell>
        <mxCell id="Dww_OwWbechh59FbVnbx-6" style="edgeStyle=orthogonalEdgeStyle;rounded=0;orthogonalLoop=1;jettySize=auto;html=1;exitX=1;exitY=0;exitDx=0;exitDy=0;entryX=0.889;entryY=-0.004;entryDx=0;entryDy=0;entryPerimeter=0;" parent="1" source="Dww_OwWbechh59FbVnbx-4" target="Dww_OwWbechh59FbVnbx-4" edge="1">
          <mxGeometry relative="1" as="geometry" />
        </mxCell>
        <mxCell id="GYrHkz--daqxT8HwmXHV-2" value="" style="rounded=1;whiteSpace=wrap;html=1;fillColor=#FFCC99;" vertex="1" parent="1">
          <mxGeometry x="232.5" y="130" width="320" height="110" as="geometry" />
        </mxCell>
        <mxCell id="Dww_OwWbechh59FbVnbx-1" value="" style="ellipse;whiteSpace=wrap;html=1;aspect=fixed;fontStyle=1;direction=north;fillColor=#99FF99;" parent="1" vertex="1">
          <mxGeometry x="250" y="150" width="70" height="70" as="geometry" />
        </mxCell>
        <mxCell id="GYrHkz--daqxT8HwmXHV-4" value="logo" style="text;html=1;align=center;verticalAlign=middle;whiteSpace=wrap;rounded=0;" vertex="1" parent="1">
          <mxGeometry x="255" y="170" width="60" height="30" as="geometry" />
        </mxCell>
        <mxCell id="GYrHkz--daqxT8HwmXHV-7" value="Welcome to E-MEd" style="text;html=1;align=center;verticalAlign=middle;whiteSpace=wrap;rounded=0;" vertex="1" parent="1">
          <mxGeometry x="310" y="140" width="220" height="30" as="geometry" />
        </mxCell>
        <mxCell id="GYrHkz--daqxT8HwmXHV-8" value="About us" style="text;html=1;align=center;verticalAlign=middle;whiteSpace=wrap;rounded=0;" vertex="1" parent="1">
          <mxGeometry x="337.5" y="170" width="165" height="60" as="geometry" />
        </mxCell>
        <mxCell id="GYrHkz--daqxT8HwmXHV-12" value="" style="rounded=1;whiteSpace=wrap;html=1;strokeColor=default;fillColor=#999999;" vertex="1" parent="1">
          <mxGeometry x="260" y="295" width="100" height="100" as="geometry" />
        </mxCell>
        <mxCell id="GYrHkz--daqxT8HwmXHV-14" value="" style="shape=link;html=1;rounded=0;width=1;exitX=1;exitY=0.63;exitDx=0;exitDy=0;entryX=0.005;entryY=0.63;entryDx=0;entryDy=0;exitPerimeter=0;entryPerimeter=0;" edge="1" parent="1" source="GYrHkz--daqxT8HwmXHV-12" target="GYrHkz--daqxT8HwmXHV-12">
          <mxGeometry width="100" relative="1" as="geometry">
            <mxPoint x="380" y="300" as="sourcePoint" />
            <mxPoint x="480" y="300" as="targetPoint" />
          </mxGeometry>
        </mxCell>
        <mxCell id="Dww_OwWbechh59FbVnbx-9" value="doctor&lt;div&gt;login&lt;/div&gt;" style="text;html=1;align=center;verticalAlign=middle;whiteSpace=wrap;rounded=0;" parent="1" vertex="1">
          <mxGeometry x="277.5" y="360" width="60" height="30" as="geometry" />
        </mxCell>
        <mxCell id="GYrHkz--daqxT8HwmXHV-15" value="" style="rounded=1;whiteSpace=wrap;html=1;strokeColor=default;fillColor=#999999;" vertex="1" parent="1">
          <mxGeometry x="420" y="295" width="100" height="100" as="geometry" />
        </mxCell>
        <mxCell id="GYrHkz--daqxT8HwmXHV-16" value="" style="shape=link;html=1;rounded=0;entryX=1.005;entryY=0.66;entryDx=0;entryDy=0;entryPerimeter=0;exitX=0.02;exitY=0.66;exitDx=0;exitDy=0;exitPerimeter=0;width=1;" edge="1" parent="1">
          <mxGeometry width="100" relative="1" as="geometry">
            <mxPoint x="421.5" y="360" as="sourcePoint" />
            <mxPoint x="520" y="360" as="targetPoint" />
            <Array as="points">
              <mxPoint x="469.5" y="360" />
            </Array>
          </mxGeometry>
        </mxCell>
        <mxCell id="Dww_OwWbechh59FbVnbx-10" value="patient&lt;div&gt;login&lt;/div&gt;" style="text;html=1;align=center;verticalAlign=middle;whiteSpace=wrap;rounded=0;" parent="1" vertex="1">
          <mxGeometry x="440" y="360" width="60" height="30" as="geometry" />
        </mxCell>
      </root>
    </mxGraphModel>
  </diagram>
</mxfile>
